HIERARCHY
ROOT Hips
{
  OFFSET 51.8108 84.3084 9.02584
  CHANNELS 6 Xposition Yposition Zposition Zrotation Xrotation Yrotation
  JOINT spine
  {
    OFFSET 0 5.95438 0.342407
    CHANNELS 3 Zrotation Xrotation Yrotation
    JOINT spine1
    {
      OFFSET 0 8.85602 0
      CHANNELS 3 Zrotation Xrotation Yrotation
      JOINT spine2
      {
        OFFSET 0 8.48567 0
        CHANNELS 3 Zrotation Xrotation Yrotation
        JOINT Neck
        {
          OFFSET 0 21.7863 1.0387
          CHANNELS 3 Zrotation Xrotation Yrotation
          JOINT Head
          {
            OFFSET 0 6.5822 0
            CHANNELS 3 Zrotation Xrotation Yrotation
            End Site
            {
              OFFSET 0 15.9326 -5.25436
            }
          }
        }
        JOINT RightShoulder
        {
          OFFSET -3.57307 9.16386 -0.497525
          CHANNELS 3 Zrotation Xrotation Yrotation
          JOINT RightArm
          {
            OFFSET 0 12.0192 0
            CHANNELS 3 Zrotation Xrotation Yrotation
            JOINT RightArmRoll
            {
              OFFSET 0 6.06755 0
              CHANNELS 3 Zrotation Xrotation Yrotation
              JOINT RightForeArm
              {
                OFFSET 0 17.6726 0
                CHANNELS 3 Zrotation Xrotation Yrotation
                JOINT RightForeArmRoll
                {
                  OFFSET 0 6.80872 0
                  CHANNELS 3 Zrotation Xrotation Yrotation
                  JOINT RightHand
                  {
                    OFFSET 0 13.6636 0
                    CHANNELS 3 Zrotation Xrotation Yrotation
                    End Site
                    {
                      OFFSET 0 0 0
                    }
                  }
                }
              }
            }
          }
        }
        JOINT LeftShoulder
        {
          OFFSET 3.57307 9.16386 -0.497525
          CHANNELS 3 Zrotation Xrotation Yrotation
          JOINT LeftArm
          {
            OFFSET 0 12.0192 0
            CHANNELS 3 Zrotation Xrotation Yrotation
            JOINT LeftArmRoll
            {
              OFFSET 0 6.06755 0
              CHANNELS 3 Zrotation Xrotation Yrotation
              JOINT LeftForeArm
              {
                OFFSET 0 17.6726 0
                CHANNELS 3 Zrotation Xrotation Yrotation
                JOINT LeftForeArmRoll
                {
                  OFFSET 0 6.80872 0
                  CHANNELS 3 Zrotation Xrotation Yrotation
                  JOINT LeftHand
                  {
                    OFFSET 0 13.6636 0
                    CHANNELS 3 Zrotation Xrotation Yrotation
                    End Site
                    {
                      OFFSET 0 0 0
                    }
                  }
                }
              }
            }
          }
        }
      }
    }
  }
  JOINT RightUpLeg
  {
    OFFSET -5.27774 -0.967797 -0.811858
    CHANNELS 3 Zrotation Xrotation Yrotation
    JOINT RightUpLegRoll
    {
      OFFSET 0 16.0214 0
      CHANNELS 3 Zrotation Xrotation Yrotation
      JOINT RightLeg
      {
        OFFSET 0 -19.8401 0
        CHANNELS 3 Zrotation Xrotation Yrotation
        JOINT RightLegRoll
        {
          OFFSET 0 19.905 0
          CHANNELS 3 Zrotation Xrotation Yrotation
          JOINT RightFoot
          {
            OFFSET 0 16.5675 0
            CHANNELS 3 Zrotation Xrotation Yrotation
            JOINT RightToeBase
            {
              OFFSET 0 13.8496 0
              CHANNELS 3 Zrotation Xrotation Yrotation
              End Site
              {
                OFFSET 0.00587034 6.70728 -0.773117
              }
            }
          }
        }
      }
    }
  }
  JOINT LeftUpLeg
  {
    OFFSET 5.27774 -0.967797 -0.811858
    CHANNELS 3 Zrotation Xrotation Yrotation
    JOINT LeftUpLegRoll
    {
      OFFSET 0 16.0215 0
      CHANNELS 3 Zrotation Xrotation Yrotation
      JOINT LeftLeg
      {
        OFFSET 0 19.84 0
        CHANNELS 3 Zrotation Xrotation Yrotation
        JOINT LeftLegRoll
        {
          OFFSET 0 20.089 0
          CHANNELS 3 Zrotation Xrotation Yrotation
          JOINT LeftFoot
          {
            OFFSET 0 16.3835 0
            CHANNELS 3 Zrotation Xrotation Yrotation
            JOINT LeftToeBase
            {
              OFFSET 0 13.8496 0
              CHANNELS 3 Zrotation Xrotation Yrotation
              End Site
              {
                OFFSET -0.0263083 6.70728 -0.773117
              }
            }
          }
        }
      }
    }
  }
}
MOTION
Frames: 4
Frame Time: 0.00208333
51.3742 83.7257 5.8642 -1.02508 1.10083 17.2876 0.173142 0.0686961 0.120915 0.345747 4.14059 0.223562 0.343613 5.78564 0.218036 -41.6786 -8.09094 -9.89267 43.5535 7.85299 -16.4235 12.1962 -2.58881 4.80194 118.55 67.0337 -39.8049 3.37874e-006 -4.87821e-007 4.89504e-007 -6.08771 62.5863 1.12677 -4.37734e-006 -1.85204e-006 -2.99938 8.03009 -4.95137 0.697629 -71.3583 -11.1324 6.82213 -173.711 77.0414 104.763 6.36111e-015 9.54166e-015 9.14409e-015 175.84 73.738 -171.297 -4.92742e-006 1.59679e-006 3 -8.03011 -4.95139 -0.69764 -177.151 7.47931 -1.25237 180 7.01564e-015 179.002 -179.626 12.5271 179.413 -3.16824e-006 -2.00143e-007 0.102127 -18.2046 67.4565 19.077 8.13289 25.2329 -3.4862 -177.742 15.4078 0.705863 4.54188e-006 -4.6773e-006 -0.9634 -0.619565 -20.0437 0.569741 -1.84783e-006 -3.52178e-006 -0.33057 19.6419 69.2611 -20.6499 -8.13649 25.2327 3.48774 
51.3752 83.7152 5.83353 -0.999848 1.03046 17.1459 0.174314 0.0773677 0.12025 0.348086 4.15794 0.222801 0.345965 5.80298 0.217187 -41.4957 -8.06209 -9.79287 43.3595 7.80497 -16.2822 12.5075 -2.54467 4.80029 118.691 66.7109 -40.061 3.37874e-006 -4.87821e-007 4.89504e-007 -6.21927 63.5283 1.27719 -4.37734e-006 -1.85204e-006 -2.9995 8.03009 -4.95137 0.697629 -71.15 -11.0989 6.80764 -174.087 77.0313 105.072 -7.95139e-016 -6.36111e-015 1.98785e-015 175.646 74.2166 -171.099 -4.92742e-006 1.59679e-006 3 -8.03011 -4.95139 -0.69764 -177.174 7.39094 -1.22772 180 7.01564e-015 179 -179.625 12.5178 179.413 -3.16824e-006 -2.00143e-007 0.100809 -18.1864 67.433 19.057 8.13289 25.2329 -3.4862 -177.754 15.3052 0.704793 4.54188e-006 -4.6773e-006 -0.965269 -0.618771 -20.0726 0.571104 -1.84783e-006 -3.52178e-006 -0.332402 19.6625 69.2834 -20.6721 -8.13649 25.2327 3.48774 
51.4116 83.7194 5.87508 -0.973772 0.962677 17.0027 0.175663 0.0856192 0.119604 0.350781 4.17444 0.22201 0.348673 5.81949 0.216303 -41.3159 -8.03715 -9.69313 43.1587 7.7597 -16.1411 12.8198 -2.50424 4.79363 118.86 66.4032 -40.3458 3.37874e-006 -4.87821e-007 4.89504e-007 -6.35517 64.4306 1.43215 -4.37734e-006 -1.85204e-006 -2.99962 8.03009 -4.95137 0.697629 -70.9405 -11.0619 6.79104 -174.475 77.0219 105.388 -3.57812e-015 -1.27222e-014 -6.95746e-015 175.425 74.7257 -170.875 -4.92742e-006 1.59679e-006 3 -8.03011 -4.95139 -0.69764 -177.198 7.30863 -1.20208 180 7.01564e-015 178.999 -179.625 12.5135 179.413 -3.16824e-006 -2.00143e-007 0.0997264 -18.1699 67.4117 19.039 8.13289 25.2329 -3.4862 -177.77 15.2039 0.706645 4.54188e-006 -4.6773e-006 -0.967107 -0.617198 -20.0989 0.572573 -1.84783e-006 -3.52178e-006 -0.334082 19.6812 69.3037 -20.6924 -8.13649 25.2327 3.48774 
51.4403 83.7152 5.84955 -0.946545 0.898513 16.8588 0.177177 0.0933005 0.118978 0.353807 4.1898 0.221173 0.351715 5.83485 0.215371 -41.1395 -8.01713 -9.5938 42.9498 7.71863 -16.0009 13.1319 -2.46845 4.781 119.043 66.1036 -40.6463 3.37874e-006 -4.87821e-007 4.89504e-007 -6.49806 65.31 1.59353 -4.37734e-006 -1.85204e-006 -2.99973 8.03009 -4.95137 0.697629 -70.7302 -11.0207 6.77197 -174.88 77.0137 105.715 -1.23246e-014 6.36111e-015 -1.78906e-014 175.174 75.2692 -170.62 -4.92742e-006 1.59679e-006 3 -8.03011 -4.95139 -0.69764 -177.227 7.23411 -1.17518 180 7.01563e-015 178.997 -179.625 12.5154 179.413 -3.16824e-006 -2.00143e-007 0.098931 -18.1558 67.3932 19.0235 8.13289 25.2329 -3.4862 -177.79 15.1045 0.712034 4.54188e-006 -4.6773e-006 -0.968895 -0.61486 -20.1215 0.574114 -1.84783e-006 -3.52178e-006 -0.335558 19.6976 69.3214 -20.71 -8.13649 25.2327 3.48774 
